<mxfile host="65bd71144e">
    <diagram id="iWupbFYd9nSeZcl6P5-9" name="Página-1">
        <mxGraphModel dx="1198" dy="427" grid="1" gridSize="10" guides="1" tooltips="1" connect="1" arrows="1" fold="1" page="1" pageScale="1" pageWidth="827" pageHeight="1169" math="0" shadow="0">
            <root>
                <mxCell id="0"/>
                <mxCell id="1" parent="0"/>
                <mxCell id="13" value="" style="group" parent="1" vertex="1" connectable="0">
                    <mxGeometry x="200.41999999999996" y="30" width="160" height="160" as="geometry"/>
                </mxCell>
                <mxCell id="2" value="" style="whiteSpace=wrap;html=1;aspect=fixed;container=0;" parent="13" vertex="1">
                    <mxGeometry width="160" height="160" as="geometry"/>
                </mxCell>
                <mxCell id="3" value="" style="rounded=0;whiteSpace=wrap;html=1;container=0;" parent="13" vertex="1">
                    <mxGeometry y="43.67848834449035" width="159.52143569292127" height="73.11399135925558" as="geometry"/>
                </mxCell>
                <mxCell id="6" value="- Nome: String" style="text;html=1;strokeColor=none;fillColor=none;align=center;verticalAlign=middle;whiteSpace=wrap;rounded=0;container=0;" parent="13" vertex="1">
                    <mxGeometry y="43.68" width="100" height="20.89" as="geometry"/>
                </mxCell>
                <mxCell id="8" value="Pessoa" style="text;strokeColor=none;fillColor=none;html=1;fontSize=24;fontStyle=1;verticalAlign=middle;align=center;container=0;" parent="13" vertex="1">
                    <mxGeometry y="12.34392061909509" width="159.52143569292127" height="31.33456772539525" as="geometry"/>
                </mxCell>
                <mxCell id="9" value="+ ImprimeDados() : String" style="text;html=1;strokeColor=none;fillColor=none;align=center;verticalAlign=middle;whiteSpace=wrap;rounded=0;container=0;" parent="13" vertex="1">
                    <mxGeometry y="116.79247970374591" width="159.52143569292127" height="42.72895598917533" as="geometry"/>
                </mxCell>
                <mxCell id="12" value="- Idade: String" style="text;html=1;strokeColor=none;fillColor=none;align=center;verticalAlign=middle;whiteSpace=wrap;rounded=0;container=0;" parent="13" vertex="1">
                    <mxGeometry x="-10.42" y="85.46" width="120.42" height="16.79" as="geometry"/>
                </mxCell>
                <mxCell id="41" value="- Endereço: String" style="text;html=1;strokeColor=none;fillColor=none;align=center;verticalAlign=middle;whiteSpace=wrap;rounded=0;container=0;" parent="13" vertex="1">
                    <mxGeometry y="64.57" width="118.42" height="20.89" as="geometry"/>
                </mxCell>
                <mxCell id="14" value="" style="group" parent="1" vertex="1" connectable="0">
                    <mxGeometry x="200.42" y="350" width="160.42" height="160" as="geometry"/>
                </mxCell>
                <mxCell id="15" value="" style="whiteSpace=wrap;html=1;aspect=fixed;container=0;" parent="14" vertex="1">
                    <mxGeometry width="160" height="160" as="geometry"/>
                </mxCell>
                <mxCell id="16" value="" style="rounded=0;whiteSpace=wrap;html=1;container=0;" parent="14" vertex="1">
                    <mxGeometry x="0.48" y="43.68" width="159.94" height="46.32" as="geometry"/>
                </mxCell>
                <mxCell id="25" value="" style="edgeStyle=none;html=1;" parent="14" source="17" target="20" edge="1">
                    <mxGeometry relative="1" as="geometry"/>
                </mxCell>
                <mxCell id="17" value="- Salario : Float" style="text;html=1;strokeColor=none;fillColor=none;align=center;verticalAlign=middle;whiteSpace=wrap;rounded=0;container=0;" parent="14" vertex="1">
                    <mxGeometry y="43.68" width="91.39" height="16.32" as="geometry"/>
                </mxCell>
                <mxCell id="18" value="Funcionario" style="text;strokeColor=none;fillColor=none;html=1;fontSize=24;fontStyle=1;verticalAlign=middle;align=center;container=0;" parent="14" vertex="1">
                    <mxGeometry y="12.34392061909509" width="159.9401794616152" height="31.33456772539525" as="geometry"/>
                </mxCell>
                <mxCell id="19" value="+ ObterSalario() : Float" style="text;html=1;strokeColor=none;fillColor=none;align=center;verticalAlign=middle;whiteSpace=wrap;rounded=0;container=0;" parent="14" vertex="1">
                    <mxGeometry x="0.48" y="90" width="159.94" height="20" as="geometry"/>
                </mxCell>
                <mxCell id="20" value="- Cargo : String" style="text;html=1;strokeColor=none;fillColor=none;align=center;verticalAlign=middle;whiteSpace=wrap;rounded=0;container=0;" parent="14" vertex="1">
                    <mxGeometry x="-10" y="60" width="120" height="14.99" as="geometry"/>
                </mxCell>
                <mxCell id="43" value="+ ImprimeDados() : String" style="text;html=1;strokeColor=none;fillColor=none;align=center;verticalAlign=middle;whiteSpace=wrap;rounded=0;" parent="14" vertex="1">
                    <mxGeometry y="110" width="160" height="15" as="geometry"/>
                </mxCell>
                <mxCell id="26" style="edgeStyle=none;html=1;exitX=0.5;exitY=0;exitDx=0;exitDy=0;entryX=0.5;entryY=1;entryDx=0;entryDy=0;" parent="1" source="15" target="2" edge="1">
                    <mxGeometry relative="1" as="geometry"/>
                </mxCell>
                <mxCell id="27" value="É&amp;nbsp;" style="text;html=1;strokeColor=none;fillColor=none;align=center;verticalAlign=middle;whiteSpace=wrap;rounded=0;" parent="1" vertex="1">
                    <mxGeometry x="310.41999999999996" y="250" width="60" height="30" as="geometry"/>
                </mxCell>
                <mxCell id="28" value="(0, 1)" style="text;html=1;strokeColor=none;fillColor=none;align=center;verticalAlign=middle;whiteSpace=wrap;rounded=0;" parent="1" vertex="1">
                    <mxGeometry x="280.41999999999996" y="330" width="40" height="20" as="geometry"/>
                </mxCell>
                <mxCell id="29" value="(1, 1)" style="text;html=1;strokeColor=none;fillColor=none;align=center;verticalAlign=middle;whiteSpace=wrap;rounded=0;" parent="1" vertex="1">
                    <mxGeometry x="291.41999999999996" y="190" width="39" height="20" as="geometry"/>
                </mxCell>
                <mxCell id="30" value="" style="triangle;whiteSpace=wrap;html=1;rotation=-90;" parent="1" vertex="1">
                    <mxGeometry x="343.91999999999996" y="245.49" width="28.95" height="25.09" as="geometry"/>
                </mxCell>
                <mxCell id="31" value="" style="group" parent="1" vertex="1" connectable="0">
                    <mxGeometry x="560.42" y="30" width="230" height="230" as="geometry"/>
                </mxCell>
                <mxCell id="32" value="" style="whiteSpace=wrap;html=1;aspect=fixed;container=0;" parent="31" vertex="1">
                    <mxGeometry width="230" height="230" as="geometry"/>
                </mxCell>
                <mxCell id="33" value="" style="rounded=0;whiteSpace=wrap;html=1;container=0;" parent="31" vertex="1">
                    <mxGeometry y="51.11" width="230" height="118.89" as="geometry"/>
                </mxCell>
                <mxCell id="34" value="- Id : String" style="text;html=1;strokeColor=none;fillColor=none;align=left;verticalAlign=middle;whiteSpace=wrap;rounded=0;container=0;" parent="31" vertex="1">
                    <mxGeometry y="55.81333333333334" width="94.79" height="20.853333333333335" as="geometry"/>
                </mxCell>
                <mxCell id="35" value="Cliente" style="text;strokeColor=none;fillColor=none;html=1;fontSize=24;fontStyle=1;verticalAlign=middle;align=center;container=0;" parent="31" vertex="1">
                    <mxGeometry width="230" height="51.11" as="geometry"/>
                </mxCell>
                <mxCell id="36" value="+calcularidade() : integer" style="text;html=1;strokeColor=none;fillColor=none;align=center;verticalAlign=middle;whiteSpace=wrap;rounded=0;container=0;" parent="31" vertex="1">
                    <mxGeometry y="179.23" width="230" height="50.77" as="geometry"/>
                </mxCell>
                <mxCell id="37" value="- Nome : String" style="text;html=1;strokeColor=none;fillColor=none;align=left;verticalAlign=middle;whiteSpace=wrap;rounded=0;container=0;" parent="31" vertex="1">
                    <mxGeometry y="76.66666666666667" width="168.51555555555558" height="19.716111111111115" as="geometry"/>
                </mxCell>
                <mxCell id="45" value="- CPF : String" style="text;html=1;strokeColor=none;fillColor=none;align=left;verticalAlign=middle;whiteSpace=wrap;rounded=0;" parent="31" vertex="1">
                    <mxGeometry y="96.3827777777778" width="168.51555555555558" height="18.617222222222225" as="geometry"/>
                </mxCell>
                <mxCell id="47" value="- Idade : String" style="text;html=1;strokeColor=none;fillColor=none;align=left;verticalAlign=middle;whiteSpace=wrap;rounded=0;" parent="31" vertex="1">
                    <mxGeometry x="-0.5055466666666667" y="115.00000000000003" width="190.08554666666666" height="12.777777777777779" as="geometry"/>
                </mxCell>
                <mxCell id="51" value="" style="group" parent="1" vertex="1" connectable="0">
                    <mxGeometry x="100" y="660" width="440" height="300" as="geometry"/>
                </mxCell>
                <mxCell id="92" value="" style="group" parent="51" vertex="1" connectable="0">
                    <mxGeometry x="-1.6099999999999994" width="421.61" height="240" as="geometry"/>
                </mxCell>
                <mxCell id="52" value="" style="whiteSpace=wrap;html=1;aspect=fixed;container=0;" parent="92" vertex="1">
                    <mxGeometry x="0.803310722022943" width="239.3612925167143" height="239.3612925167143" as="geometry"/>
                </mxCell>
                <mxCell id="53" value="" style="rounded=0;whiteSpace=wrap;html=1;container=0;" parent="92" vertex="1">
                    <mxGeometry x="2.54" y="53.57" width="239.07" height="96.43" as="geometry"/>
                </mxCell>
                <mxCell id="55" value="&lt;span style=&quot;white-space: pre;&quot;&gt;&#9;&lt;/span&gt;- matricula : int" style="text;html=1;strokeColor=none;fillColor=none;align=left;verticalAlign=middle;whiteSpace=wrap;rounded=0;container=0;" parent="92" vertex="1">
                    <mxGeometry x="0.8" y="53.57" width="240.81" height="26.23" as="geometry"/>
                </mxCell>
                <mxCell id="56" value="Funcionario" style="text;strokeColor=none;fillColor=none;html=1;fontSize=24;fontStyle=1;verticalAlign=middle;align=center;container=0;" parent="92" vertex="1">
                    <mxGeometry x="2.54" width="239.07" height="50.36" as="geometry"/>
                </mxCell>
                <mxCell id="57" value="&lt;div style=&quot;&quot;&gt;&lt;span style=&quot;background-color: initial; white-space: pre;&quot;&gt;&#9;&lt;/span&gt;&lt;span style=&quot;background-color: initial;&quot;&gt;+ consultar() : list&lt;/span&gt;&lt;/div&gt;" style="text;html=1;strokeColor=none;fillColor=none;align=left;verticalAlign=middle;whiteSpace=wrap;rounded=0;container=0;" parent="92" vertex="1">
                    <mxGeometry x="3.41" y="176.79" width="238.2" height="23.21" as="geometry"/>
                </mxCell>
                <mxCell id="58" value="&lt;span style=&quot;white-space: pre;&quot;&gt;&#9;&lt;/span&gt;- nome : String" style="text;html=1;strokeColor=none;fillColor=none;align=left;verticalAlign=middle;whiteSpace=wrap;rounded=0;container=0;" parent="92" vertex="1">
                    <mxGeometry x="0.8" y="79.8" width="240.81" height="24.1" as="geometry"/>
                </mxCell>
                <mxCell id="54" value="" style="edgeStyle=none;html=1;" parent="92" source="55" target="58" edge="1">
                    <mxGeometry relative="1" as="geometry"/>
                </mxCell>
                <mxCell id="79" value="&lt;span style=&quot;white-space: pre;&quot;&gt;&#9;&lt;/span&gt;- cargoAtual : String" style="text;html=1;strokeColor=none;fillColor=none;align=left;verticalAlign=middle;whiteSpace=wrap;rounded=0;container=0;" parent="92" vertex="1">
                    <mxGeometry x="2.54" y="103.9" width="239.07" height="24.1" as="geometry"/>
                </mxCell>
                <mxCell id="80" value="&lt;span style=&quot;white-space: pre;&quot;&gt;&#9;&lt;/span&gt;&amp;nbsp;- salarioAtual() : float" style="text;html=1;strokeColor=none;fillColor=none;align=left;verticalAlign=middle;whiteSpace=wrap;rounded=0;container=0;rotation=0;" parent="92" vertex="1">
                    <mxGeometry y="127.99" width="241.61" height="22.01" as="geometry"/>
                </mxCell>
                <mxCell id="81" value="&lt;span style=&quot;white-space: pre;&quot;&gt;&#9;&lt;/span&gt;+ cadastrar() : void" style="text;html=1;strokeColor=none;fillColor=none;align=left;verticalAlign=middle;whiteSpace=wrap;rounded=0;container=0;" parent="92" vertex="1">
                    <mxGeometry x="1.61" y="156.79" width="240" height="20" as="geometry"/>
                </mxCell>
                <mxCell id="83" value="+ atualizarSalario(novoSalario : float) : void" style="text;html=1;strokeColor=none;fillColor=none;align=left;verticalAlign=middle;whiteSpace=wrap;rounded=0;container=0;" parent="92" vertex="1">
                    <mxGeometry x="1.61" y="200" width="240" height="20" as="geometry"/>
                </mxCell>
                <mxCell id="84" value="&lt;span style=&quot;white-space: pre;&quot;&gt;&#9;&lt;/span&gt;+ listarDependentes() : list" style="text;html=1;strokeColor=none;fillColor=none;align=left;verticalAlign=middle;whiteSpace=wrap;rounded=0;container=0;" parent="92" vertex="1">
                    <mxGeometry y="218.36" width="241.61" height="21.64" as="geometry"/>
                </mxCell>
                <mxCell id="86" value="1" style="text;html=1;strokeColor=none;fillColor=none;align=center;verticalAlign=middle;whiteSpace=wrap;rounded=0;container=0;" parent="92" vertex="1">
                    <mxGeometry x="241.61" y="120" width="60" height="30" as="geometry"/>
                </mxCell>
                <mxCell id="87" value="possui&amp;nbsp;" style="text;html=1;strokeColor=none;fillColor=none;align=center;verticalAlign=middle;whiteSpace=wrap;rounded=0;container=0;" parent="92" vertex="1">
                    <mxGeometry x="311.61" y="110" width="60" height="30" as="geometry"/>
                </mxCell>
                <mxCell id="88" value="" style="triangle;whiteSpace=wrap;html=1;container=0;" parent="92" vertex="1">
                    <mxGeometry x="371.61" y="115" width="10" height="20" as="geometry"/>
                </mxCell>
                <mxCell id="89" value="0.. *" style="text;html=1;strokeColor=none;fillColor=none;align=center;verticalAlign=middle;whiteSpace=wrap;rounded=0;container=0;" parent="92" vertex="1">
                    <mxGeometry x="391.61" y="128" width="30" height="12" as="geometry"/>
                </mxCell>
                <mxCell id="72" value="" style="rounded=0;whiteSpace=wrap;html=1;container=0;" parent="1" vertex="1">
                    <mxGeometry x="520" y="724" width="200" height="86" as="geometry"/>
                </mxCell>
                <mxCell id="73" value="" style="rounded=0;whiteSpace=wrap;html=1;container=0;" parent="1" vertex="1">
                    <mxGeometry x="520" y="755" width="200" height="35" as="geometry"/>
                </mxCell>
                <mxCell id="75" value="Dependente" style="text;strokeColor=none;fillColor=none;html=1;fontSize=24;fontStyle=1;verticalAlign=middle;align=center;container=0;" parent="1" vertex="1">
                    <mxGeometry x="520" y="724" width="200" height="36" as="geometry"/>
                </mxCell>
                <mxCell id="76" value="&amp;nbsp;- nome : String" style="text;html=1;strokeColor=none;fillColor=none;align=left;verticalAlign=middle;whiteSpace=wrap;rounded=0;container=0;" parent="1" vertex="1">
                    <mxGeometry x="520" y="755" width="200" height="15" as="geometry"/>
                </mxCell>
                <mxCell id="77" value="&amp;nbsp;- parentesco : String" style="text;html=1;strokeColor=none;fillColor=none;align=left;verticalAlign=middle;whiteSpace=wrap;rounded=0;container=0;" parent="1" vertex="1">
                    <mxGeometry x="520" y="770" width="200" height="15" as="geometry"/>
                </mxCell>
                <mxCell id="85" style="edgeStyle=none;html=1;exitX=1;exitY=0.25;exitDx=0;exitDy=0;entryX=0;entryY=1;entryDx=0;entryDy=0;endArrow=none;endFill=0;" parent="1" source="79" target="76" edge="1">
                    <mxGeometry relative="1" as="geometry"/>
                </mxCell>
                <mxCell id="119" value="" style="group" parent="1" vertex="1" connectable="0">
                    <mxGeometry x="920" y="480" width="560" height="86" as="geometry"/>
                </mxCell>
                <mxCell id="102" value="" style="rounded=0;whiteSpace=wrap;html=1;container=0;" parent="119" vertex="1">
                    <mxGeometry width="200" height="86" as="geometry"/>
                </mxCell>
                <mxCell id="103" value="" style="rounded=0;whiteSpace=wrap;html=1;container=0;" parent="119" vertex="1">
                    <mxGeometry y="1" width="200" height="35" as="geometry"/>
                </mxCell>
                <mxCell id="104" value="Time" style="text;strokeColor=none;fillColor=none;html=1;fontSize=24;fontStyle=1;verticalAlign=middle;align=center;container=0;" parent="119" vertex="1">
                    <mxGeometry y="5" width="200" height="25" as="geometry"/>
                </mxCell>
                <mxCell id="107" value="" style="rounded=0;whiteSpace=wrap;html=1;container=0;" parent="119" vertex="1">
                    <mxGeometry x="360" width="200" height="86" as="geometry"/>
                </mxCell>
                <mxCell id="108" value="" style="rounded=0;whiteSpace=wrap;html=1;container=0;" parent="119" vertex="1">
                    <mxGeometry x="360" y="0.5" width="200" height="29.5" as="geometry"/>
                </mxCell>
                <mxCell id="109" value="Atleta" style="text;strokeColor=none;fillColor=none;html=1;fontSize=24;fontStyle=1;verticalAlign=middle;align=center;container=0;" parent="119" vertex="1">
                    <mxGeometry x="360" width="200" height="36" as="geometry"/>
                </mxCell>
                <mxCell id="110" value="&lt;font color=&quot;#ffffff&quot;&gt;+&lt;span style=&quot;white-space: pre;&quot;&gt;&#9;&lt;/span&gt;nome&lt;/font&gt;" style="text;html=1;strokeColor=none;fillColor=none;align=left;verticalAlign=middle;whiteSpace=wrap;rounded=0;container=0;" parent="119" vertex="1">
                    <mxGeometry x="360" y="31" width="200" height="15" as="geometry"/>
                </mxCell>
                <mxCell id="111" value="&lt;font color=&quot;#ffffff&quot;&gt;+&lt;span style=&quot;white-space: pre;&quot;&gt;&#9;&lt;/span&gt;idade&lt;/font&gt;" style="text;html=1;strokeColor=none;fillColor=none;align=left;verticalAlign=middle;whiteSpace=wrap;rounded=0;container=0;" parent="119" vertex="1">
                    <mxGeometry x="360" y="46" width="200" height="15" as="geometry"/>
                </mxCell>
                <mxCell id="115" value="&lt;font color=&quot;#ffffff&quot;&gt;+ nomeTime&lt;/font&gt;" style="text;html=1;strokeColor=none;fillColor=none;align=left;verticalAlign=middle;whiteSpace=wrap;rounded=0;fontColor=#f0f000;" parent="119" vertex="1">
                    <mxGeometry y="38.5" width="200" height="11.5" as="geometry"/>
                </mxCell>
                <mxCell id="116" value="&lt;font color=&quot;#ffffff&quot;&gt;+ técnico&lt;/font&gt;" style="text;html=1;strokeColor=none;fillColor=none;align=left;verticalAlign=middle;whiteSpace=wrap;rounded=0;fontColor=#F00202;" parent="119" vertex="1">
                    <mxGeometry y="50" width="200" height="20" as="geometry"/>
                </mxCell>
                <mxCell id="117" style="edgeStyle=none;html=1;exitX=0;exitY=0.25;exitDx=0;exitDy=0;entryX=1;entryY=0;entryDx=0;entryDy=0;fontColor=#f00000;endArrow=diamondThin;endFill=1;" parent="119" source="111" target="116" edge="1">
                    <mxGeometry relative="1" as="geometry"/>
                </mxCell>
                <mxCell id="118" value="&lt;font color=&quot;#ffffff&quot;&gt;+&lt;span style=&quot;white-space: pre;&quot;&gt;&#9;&lt;/span&gt;posição&lt;/font&gt;" style="text;html=1;strokeColor=none;fillColor=none;align=left;verticalAlign=middle;whiteSpace=wrap;rounded=0;fontColor=#f00000;" parent="119" vertex="1">
                    <mxGeometry x="360" y="61" width="200" height="19" as="geometry"/>
                </mxCell>
                <mxCell id="120" value="" style="whiteSpace=wrap;html=1;aspect=fixed;container=0;" parent="1" vertex="1">
                    <mxGeometry x="930.8" y="660" width="209.36" height="209.36" as="geometry"/>
                </mxCell>
                <mxCell id="121" value="" style="rounded=0;whiteSpace=wrap;html=1;container=0;" parent="1" vertex="1">
                    <mxGeometry x="932.54" y="690" width="207.46" height="90" as="geometry"/>
                </mxCell>
                <mxCell id="122" value="&lt;span style=&quot;white-space: pre;&quot;&gt;&#9;&lt;/span&gt;- matricula : int" style="text;html=1;strokeColor=none;fillColor=none;align=left;verticalAlign=middle;whiteSpace=wrap;rounded=0;container=0;" parent="1" vertex="1">
                    <mxGeometry x="930.8" y="690" width="209.2" height="19.8" as="geometry"/>
                </mxCell>
                <mxCell id="123" value="Funcionario" style="text;strokeColor=none;fillColor=none;html=1;fontSize=24;fontStyle=1;verticalAlign=middle;align=center;container=0;" parent="1" vertex="1">
                    <mxGeometry x="932.54" y="660" width="207.46" height="30" as="geometry"/>
                </mxCell>
                <mxCell id="124" value="&lt;div style=&quot;&quot;&gt;&lt;span style=&quot;background-color: initial; white-space: pre;&quot;&gt;&#9;&lt;/span&gt;&lt;span style=&quot;background-color: initial;&quot;&gt;+ consultar() : list&lt;/span&gt;&lt;/div&gt;" style="text;html=1;strokeColor=none;fillColor=none;align=left;verticalAlign=middle;whiteSpace=wrap;rounded=0;container=0;" parent="1" vertex="1">
                    <mxGeometry x="933.41" y="806.79" width="206.59" height="23.21" as="geometry"/>
                </mxCell>
                <mxCell id="125" value="&lt;span style=&quot;white-space: pre;&quot;&gt;&#9;&lt;/span&gt;- nome : String" style="text;html=1;strokeColor=none;fillColor=none;align=left;verticalAlign=middle;whiteSpace=wrap;rounded=0;container=0;" parent="1" vertex="1">
                    <mxGeometry x="930.8" y="710" width="209.2" height="23.9" as="geometry"/>
                </mxCell>
                <mxCell id="126" value="" style="edgeStyle=none;html=1;" parent="1" source="122" target="125" edge="1">
                    <mxGeometry relative="1" as="geometry"/>
                </mxCell>
                <mxCell id="127" value="&lt;span style=&quot;white-space: pre;&quot;&gt;&#9;&lt;/span&gt;- cargoAtual : String" style="text;html=1;strokeColor=none;fillColor=none;align=left;verticalAlign=middle;whiteSpace=wrap;rounded=0;container=0;" parent="1" vertex="1">
                    <mxGeometry x="932.54" y="733.9" width="207.46" height="24.1" as="geometry"/>
                </mxCell>
                <mxCell id="128" value="&lt;span style=&quot;white-space: pre;&quot;&gt;&#9;&lt;/span&gt;&amp;nbsp;- salarioAtual() : float" style="text;html=1;strokeColor=none;fillColor=none;align=left;verticalAlign=middle;whiteSpace=wrap;rounded=0;container=0;rotation=0;" parent="1" vertex="1">
                    <mxGeometry x="930" y="757.99" width="210" height="22.01" as="geometry"/>
                </mxCell>
                <mxCell id="129" value="&lt;span style=&quot;white-space: pre;&quot;&gt;&#9;&lt;/span&gt;+ cadastrar() : void" style="text;html=1;strokeColor=none;fillColor=none;align=left;verticalAlign=middle;whiteSpace=wrap;rounded=0;container=0;" parent="1" vertex="1">
                    <mxGeometry x="931.61" y="786.79" width="208.39" height="20" as="geometry"/>
                </mxCell>
                <mxCell id="130" value="+ atualizarSalario(novoSalario : float) : void" style="text;html=1;strokeColor=none;fillColor=none;align=left;verticalAlign=middle;whiteSpace=wrap;rounded=0;container=0;" parent="1" vertex="1">
                    <mxGeometry x="931.61" y="830" width="208.39" height="20" as="geometry"/>
                </mxCell>
                <mxCell id="131" value="&lt;span style=&quot;white-space: pre;&quot;&gt;&#9;&lt;/span&gt;+ listarDependentes() : list" style="text;html=1;strokeColor=none;fillColor=none;align=left;verticalAlign=middle;whiteSpace=wrap;rounded=0;container=0;" parent="1" vertex="1">
                    <mxGeometry x="930" y="848.36" width="210" height="21.64" as="geometry"/>
                </mxCell>
                <mxCell id="132" value="" style="whiteSpace=wrap;html=1;aspect=fixed;container=0;" parent="1" vertex="1">
                    <mxGeometry x="1260.8" y="664" width="146" height="146" as="geometry"/>
                </mxCell>
                <mxCell id="133" value="" style="rounded=0;whiteSpace=wrap;html=1;container=0;" parent="1" vertex="1">
                    <mxGeometry x="1260" y="690" width="146.8" height="46" as="geometry"/>
                </mxCell>
                <mxCell id="134" value="&lt;span style=&quot;white-space: pre;&quot;&gt;&#9;&lt;/span&gt;- matricula : int" style="text;html=1;strokeColor=none;fillColor=none;align=left;verticalAlign=middle;whiteSpace=wrap;rounded=0;container=0;" parent="1" vertex="1">
                    <mxGeometry x="1260.8" y="694" width="209.2" height="19.8" as="geometry"/>
                </mxCell>
                <mxCell id="135" value="Funcionario" style="text;strokeColor=none;fillColor=none;html=1;fontSize=24;fontStyle=1;verticalAlign=middle;align=center;container=0;" parent="1" vertex="1">
                    <mxGeometry x="1262.54" y="664" width="147.46" height="30" as="geometry"/>
                </mxCell>
                <mxCell id="136" value="&lt;div style=&quot;&quot;&gt;&lt;span style=&quot;background-color: initial; white-space: pre;&quot;&gt;&#9;&lt;/span&gt;&lt;span style=&quot;background-color: initial;&quot;&gt;+ consultar() : list&lt;/span&gt;&lt;/div&gt;" style="text;html=1;strokeColor=none;fillColor=none;align=left;verticalAlign=middle;whiteSpace=wrap;rounded=0;container=0;" parent="1" vertex="1">
                    <mxGeometry x="1260.8" y="753.08" width="139.2" height="23.21" as="geometry"/>
                </mxCell>
                <mxCell id="138" value="" style="edgeStyle=none;html=1;" parent="1" source="134" edge="1">
                    <mxGeometry relative="1" as="geometry">
                        <mxPoint x="1365.3999999999999" y="714" as="targetPoint"/>
                    </mxGeometry>
                </mxCell>
                <mxCell id="141" value="&lt;span style=&quot;white-space: pre;&quot;&gt;&#9;&lt;/span&gt;+ cadastrar() : void" style="text;html=1;strokeColor=none;fillColor=none;align=left;verticalAlign=middle;whiteSpace=wrap;rounded=0;container=0;" parent="1" vertex="1">
                    <mxGeometry x="1262.51" y="738" width="137.49" height="20" as="geometry"/>
                </mxCell>
                <mxCell id="157" value="" style="group" parent="1" vertex="1" connectable="0">
                    <mxGeometry x="920" y="920" width="160" height="100" as="geometry"/>
                </mxCell>
                <mxCell id="145" value="" style="rounded=0;whiteSpace=wrap;html=1;fontColor=#ff0000;" parent="157" vertex="1">
                    <mxGeometry width="160" height="100" as="geometry"/>
                </mxCell>
                <mxCell id="146" value="&lt;font color=&quot;#ffffff&quot;&gt;Pedido&lt;/font&gt;" style="rounded=0;whiteSpace=wrap;html=1;fontColor=#ff0000;" parent="157" vertex="1">
                    <mxGeometry width="160" height="30" as="geometry"/>
                </mxCell>
                <mxCell id="148" value="&lt;span style=&quot;background-color: initial;&quot;&gt;+&lt;/span&gt;&lt;span style=&quot;background-color: initial;&quot;&gt;&#9;&lt;span style=&quot;white-space: pre;&quot;&gt;&#9;&lt;/span&gt;&lt;/span&gt;&lt;span style=&quot;background-color: initial;&quot;&gt;id_pedido&lt;/span&gt;" style="text;html=1;strokeColor=none;fillColor=none;align=left;verticalAlign=middle;whiteSpace=wrap;rounded=0;fontColor=#FFFFFF;" parent="157" vertex="1">
                    <mxGeometry y="30" width="160" height="20" as="geometry"/>
                </mxCell>
                <mxCell id="149" value="&lt;div style=&quot;&quot;&gt;&lt;span style=&quot;background-color: initial;&quot;&gt;+&lt;/span&gt;&lt;span style=&quot;background-color: initial; white-space: pre;&quot;&gt;&#9;&lt;/span&gt;valorDesconto&lt;/div&gt;" style="text;html=1;strokeColor=none;fillColor=none;align=left;verticalAlign=middle;whiteSpace=wrap;rounded=0;fontColor=#FFFFFF;" parent="157" vertex="1">
                    <mxGeometry y="70" width="160" height="20" as="geometry"/>
                </mxCell>
                <mxCell id="151" value="+&lt;span style=&quot;white-space: pre;&quot;&gt;&#9;&lt;/span&gt;data" style="text;html=1;strokeColor=none;fillColor=none;align=left;verticalAlign=middle;whiteSpace=wrap;rounded=0;fontColor=#FFFFFF;" parent="157" vertex="1">
                    <mxGeometry y="50" width="160" height="20" as="geometry"/>
                </mxCell>
                <mxCell id="158" value="" style="group" parent="1" vertex="1" connectable="0">
                    <mxGeometry x="1251.27" y="910" width="170" height="130" as="geometry"/>
                </mxCell>
                <mxCell id="152" value="" style="rounded=0;whiteSpace=wrap;html=1;fontColor=#ff0000;" parent="158" vertex="1">
                    <mxGeometry width="160" height="120" as="geometry"/>
                </mxCell>
                <mxCell id="153" value="&lt;font color=&quot;#ffffff&quot;&gt;itemPedido&lt;/font&gt;" style="rounded=0;whiteSpace=wrap;html=1;fontColor=#ff0000;" parent="158" vertex="1">
                    <mxGeometry width="160" height="36" as="geometry"/>
                </mxCell>
                <mxCell id="154" value="&lt;span style=&quot;background-color: initial;&quot;&gt;+&lt;/span&gt;&lt;span style=&quot;background-color: initial;&quot;&gt;&#9;&lt;span style=&quot;white-space: pre;&quot;&gt;&#9;&lt;/span&gt;&lt;/span&gt;&lt;span style=&quot;background-color: initial;&quot;&gt;id_item&lt;/span&gt;" style="text;html=1;strokeColor=none;fillColor=none;align=left;verticalAlign=middle;whiteSpace=wrap;rounded=0;fontColor=#FFFFFF;" parent="158" vertex="1">
                    <mxGeometry y="36" width="160" height="24" as="geometry"/>
                </mxCell>
                <mxCell id="155" value="&lt;div style=&quot;&quot;&gt;&lt;span style=&quot;background-color: initial;&quot;&gt;+&lt;/span&gt;&lt;span style=&quot;background-color: initial; white-space: pre;&quot;&gt;&#9;&lt;/span&gt;quantidade&lt;/div&gt;" style="text;html=1;strokeColor=none;fillColor=none;align=left;verticalAlign=middle;whiteSpace=wrap;rounded=0;fontColor=#FFFFFF;" parent="158" vertex="1">
                    <mxGeometry y="84" width="160" height="16" as="geometry"/>
                </mxCell>
                <mxCell id="156" value="+&lt;span style=&quot;white-space: pre;&quot;&gt;&#9;&lt;/span&gt;descricao" style="text;html=1;strokeColor=none;fillColor=none;align=left;verticalAlign=middle;whiteSpace=wrap;rounded=0;fontColor=#FFFFFF;" parent="158" vertex="1">
                    <mxGeometry y="60" width="160" height="24" as="geometry"/>
                </mxCell>
                <mxCell id="160" value="&lt;div style=&quot;&quot;&gt;&lt;font color=&quot;#ffffff&quot;&gt;&lt;span style=&quot;background-color: initial;&quot;&gt;+&lt;/span&gt;&lt;span style=&quot;background-color: initial; white-space: pre;&quot;&gt;&#9;&lt;/span&gt;&lt;span style=&quot;background-color: initial;&quot;&gt;valorUnitario&lt;/span&gt;&lt;/font&gt;&lt;/div&gt;" style="text;html=1;strokeColor=none;fillColor=none;align=left;verticalAlign=middle;whiteSpace=wrap;rounded=0;fontColor=#F00202;" parent="158" vertex="1">
                    <mxGeometry x="1" y="100" width="160" height="20" as="geometry"/>
                </mxCell>
                <mxCell id="159" style="edgeStyle=none;html=1;exitX=0;exitY=0;exitDx=0;exitDy=0;entryX=1;entryY=0;entryDx=0;entryDy=0;fontColor=#F00202;endArrow=diamondThin;endFill=1;" parent="1" source="156" target="151" edge="1">
                    <mxGeometry relative="1" as="geometry"/>
                </mxCell>
                <mxCell id="161" value="(0..*)" style="text;html=1;strokeColor=none;fillColor=none;align=center;verticalAlign=middle;whiteSpace=wrap;rounded=0;fontColor=#FFFFFF;" parent="1" vertex="1">
                    <mxGeometry x="1080" y="980" width="60" height="30" as="geometry"/>
                </mxCell>
                <mxCell id="162" value="(1..1)" style="text;html=1;strokeColor=none;fillColor=none;align=center;verticalAlign=middle;whiteSpace=wrap;rounded=0;fontColor=#FFFFFF;" parent="1" vertex="1">
                    <mxGeometry x="1192" y="980" width="60" height="30" as="geometry"/>
                </mxCell>
                <mxCell id="168" value="" style="group" vertex="1" connectable="0" parent="1">
                    <mxGeometry x="1280" y="305" width="240" height="90" as="geometry"/>
                </mxCell>
                <mxCell id="163" value="" style="rounded=0;whiteSpace=wrap;html=1;" vertex="1" parent="168">
                    <mxGeometry width="240" height="90" as="geometry"/>
                </mxCell>
                <mxCell id="164" value="" style="rounded=0;whiteSpace=wrap;html=1;" vertex="1" parent="168">
                    <mxGeometry y="20" width="240" height="40" as="geometry"/>
                </mxCell>
                <mxCell id="165" value="&lt;b&gt;Funcionario&lt;/b&gt;" style="text;html=1;strokeColor=none;fillColor=none;align=center;verticalAlign=middle;whiteSpace=wrap;rounded=0;" vertex="1" parent="168">
                    <mxGeometry x="90" width="60" height="20" as="geometry"/>
                </mxCell>
                <mxCell id="166" value="+ matricula : Int&lt;br&gt;+ placaVeiculo : String" style="text;html=1;strokeColor=none;fillColor=none;align=left;verticalAlign=middle;whiteSpace=wrap;rounded=0;" vertex="1" parent="168">
                    <mxGeometry y="20" width="240" height="40" as="geometry"/>
                </mxCell>
                <mxCell id="167" value="+ verificarVeiculo(automovel : Automovel) : boolean" style="text;html=1;strokeColor=none;fillColor=none;align=center;verticalAlign=middle;whiteSpace=wrap;rounded=0;" vertex="1" parent="168">
                    <mxGeometry y="60" width="240" height="30" as="geometry"/>
                </mxCell>
                <mxCell id="169" value="" style="rounded=0;whiteSpace=wrap;html=1;" vertex="1" parent="1">
                    <mxGeometry x="1000" y="290" width="120" height="50" as="geometry"/>
                </mxCell>
                <mxCell id="170" value="" style="rounded=0;whiteSpace=wrap;html=1;" vertex="1" parent="1">
                    <mxGeometry x="1000" y="310" width="120" height="20" as="geometry"/>
                </mxCell>
                <mxCell id="183" style="edgeStyle=none;html=1;exitX=0.5;exitY=0;exitDx=0;exitDy=0;entryX=0.5;entryY=1;entryDx=0;entryDy=0;endArrow=block;endFill=0;" edge="1" parent="1" source="171" target="181">
                    <mxGeometry relative="1" as="geometry"/>
                </mxCell>
                <mxCell id="171" value="&lt;b&gt;dependente&lt;/b&gt;" style="text;html=1;strokeColor=none;fillColor=none;align=center;verticalAlign=middle;whiteSpace=wrap;rounded=0;" vertex="1" parent="1">
                    <mxGeometry x="1025" y="290" width="70" height="21" as="geometry"/>
                </mxCell>
                <mxCell id="172" value="+ parentesco : Int" style="text;html=1;strokeColor=none;fillColor=none;align=left;verticalAlign=middle;whiteSpace=wrap;rounded=0;" vertex="1" parent="1">
                    <mxGeometry x="1000" y="305" width="120" height="30" as="geometry"/>
                </mxCell>
                <mxCell id="182" style="edgeStyle=none;html=1;exitX=0;exitY=0.5;exitDx=0;exitDy=0;entryX=1;entryY=0.5;entryDx=0;entryDy=0;endArrow=open;endFill=0;" edge="1" parent="1" source="166" target="172">
                    <mxGeometry relative="1" as="geometry"/>
                </mxCell>
                <mxCell id="184" style="edgeStyle=none;html=1;exitX=0;exitY=0;exitDx=0;exitDy=0;entryX=0.75;entryY=1;entryDx=0;entryDy=0;endArrow=block;endFill=0;" edge="1" parent="1" source="165" target="181">
                    <mxGeometry relative="1" as="geometry"/>
                </mxCell>
                <mxCell id="185" style="edgeStyle=none;html=1;exitX=1;exitY=0;exitDx=0;exitDy=0;entryX=0.368;entryY=1.034;entryDx=0;entryDy=0;entryPerimeter=0;endArrow=open;endFill=0;dashed=1;" edge="1" parent="1" source="165" target="174">
                    <mxGeometry relative="1" as="geometry"/>
                </mxCell>
                <mxCell id="186" value="0..*" style="text;html=1;strokeColor=none;fillColor=none;align=center;verticalAlign=middle;whiteSpace=wrap;rounded=0;" vertex="1" parent="1">
                    <mxGeometry x="1120" y="290" width="60" height="30" as="geometry"/>
                </mxCell>
                <mxCell id="187" value="1" style="text;html=1;strokeColor=none;fillColor=none;align=center;verticalAlign=middle;whiteSpace=wrap;rounded=0;" vertex="1" parent="1">
                    <mxGeometry x="1230" y="285.5" width="60" height="30" as="geometry"/>
                </mxCell>
                <mxCell id="188" value="0..1" style="text;html=1;strokeColor=none;fillColor=none;align=center;verticalAlign=middle;whiteSpace=wrap;rounded=0;" vertex="1" parent="1">
                    <mxGeometry x="1346.8" y="280" width="60" height="30" as="geometry"/>
                </mxCell>
                <mxCell id="189" value="1" style="text;html=1;strokeColor=none;fillColor=none;align=center;verticalAlign=middle;whiteSpace=wrap;rounded=0;" vertex="1" parent="1">
                    <mxGeometry x="1220" y="171.5" width="60" height="30" as="geometry"/>
                </mxCell>
                <mxCell id="190" value="1" style="text;html=1;strokeColor=none;fillColor=none;align=center;verticalAlign=middle;whiteSpace=wrap;rounded=0;" vertex="1" parent="1">
                    <mxGeometry x="1090" y="180" width="60" height="30" as="geometry"/>
                </mxCell>
                <mxCell id="191" value="0..1" style="text;html=1;strokeColor=none;fillColor=none;align=center;verticalAlign=middle;whiteSpace=wrap;rounded=0;" vertex="1" parent="1">
                    <mxGeometry x="1006.27" y="260" width="60" height="30" as="geometry"/>
                </mxCell>
                <mxCell id="192" value="Possuí" style="text;html=1;strokeColor=none;fillColor=none;align=center;verticalAlign=middle;whiteSpace=wrap;rounded=0;" vertex="1" parent="1">
                    <mxGeometry x="1460" y="240.57999999999998" width="60" height="30" as="geometry"/>
                </mxCell>
                <mxCell id="193" value="É" style="text;html=1;strokeColor=none;fillColor=none;align=center;verticalAlign=middle;whiteSpace=wrap;rounded=0;" vertex="1" parent="1">
                    <mxGeometry x="1262.51" y="201.5" width="60" height="30" as="geometry"/>
                </mxCell>
                <mxCell id="194" value="É" style="text;html=1;strokeColor=none;fillColor=none;align=center;verticalAlign=middle;whiteSpace=wrap;rounded=0;" vertex="1" parent="1">
                    <mxGeometry x="1066.27" y="210.57999999999998" width="60" height="30" as="geometry"/>
                </mxCell>
                <mxCell id="195" value="1" style="text;html=1;strokeColor=none;fillColor=none;align=center;verticalAlign=middle;whiteSpace=wrap;rounded=0;" vertex="1" parent="1">
                    <mxGeometry x="1430" y="280" width="60" height="30" as="geometry"/>
                </mxCell>
                <mxCell id="196" value="0..1" style="text;html=1;strokeColor=none;fillColor=none;align=center;verticalAlign=middle;whiteSpace=wrap;rounded=0;" vertex="1" parent="1">
                    <mxGeometry x="1490" y="201.5" width="60" height="30" as="geometry"/>
                </mxCell>
                <mxCell id="198" value="" style="group" vertex="1" connectable="0" parent="1">
                    <mxGeometry x="1450" y="87.5" width="120" height="114" as="geometry"/>
                </mxCell>
                <mxCell id="174" value="" style="rounded=0;whiteSpace=wrap;html=1;" vertex="1" parent="198">
                    <mxGeometry width="120" height="114" as="geometry"/>
                </mxCell>
                <mxCell id="175" value="" style="rounded=0;whiteSpace=wrap;html=1;" vertex="1" parent="198">
                    <mxGeometry y="27" width="120" height="67" as="geometry"/>
                </mxCell>
                <mxCell id="178" value="&lt;b&gt;Automovel&lt;/b&gt;" style="text;html=1;strokeColor=none;fillColor=none;align=center;verticalAlign=middle;whiteSpace=wrap;rounded=0;" vertex="1" parent="198">
                    <mxGeometry x="30" y="4" width="60" height="30" as="geometry"/>
                </mxCell>
                <mxCell id="179" value="+ marca : String&lt;br&gt;+ modelo : String&lt;br&gt;+ cor : String&lt;br&gt;+ placa : String" style="text;html=1;strokeColor=none;fillColor=none;align=left;verticalAlign=middle;whiteSpace=wrap;rounded=0;" vertex="1" parent="198">
                    <mxGeometry y="27" width="120" height="67" as="geometry"/>
                </mxCell>
                <mxCell id="199" value="" style="group" vertex="1" connectable="0" parent="1">
                    <mxGeometry x="1110" y="115" width="130" height="65" as="geometry"/>
                </mxCell>
                <mxCell id="173" value="" style="rounded=0;whiteSpace=wrap;html=1;" vertex="1" parent="199">
                    <mxGeometry x="10" y="5" width="120" height="60" as="geometry"/>
                </mxCell>
                <mxCell id="176" value="" style="rounded=0;whiteSpace=wrap;html=1;" vertex="1" parent="199">
                    <mxGeometry x="10" y="21" width="120" height="24" as="geometry"/>
                </mxCell>
                <mxCell id="177" value="&lt;b&gt;Pessoa&lt;/b&gt;" style="text;html=1;strokeColor=none;fillColor=none;align=center;verticalAlign=middle;whiteSpace=wrap;rounded=0;" vertex="1" parent="199">
                    <mxGeometry x="40" width="60" height="30" as="geometry"/>
                </mxCell>
                <mxCell id="180" value="+ nome : String" style="text;html=1;strokeColor=none;fillColor=none;align=left;verticalAlign=middle;whiteSpace=wrap;rounded=0;" vertex="1" parent="199">
                    <mxGeometry x="10" y="20" width="120" height="30" as="geometry"/>
                </mxCell>
                <mxCell id="181" value="+ cotatar() : boolean" style="text;html=1;strokeColor=none;fillColor=none;align=center;verticalAlign=middle;whiteSpace=wrap;rounded=0;" vertex="1" parent="199">
                    <mxGeometry y="45" width="130" height="20" as="geometry"/>
                </mxCell>
                <mxCell id="200" value="Tem" style="text;html=1;strokeColor=none;fillColor=none;align=center;verticalAlign=middle;whiteSpace=wrap;rounded=0;" vertex="1" parent="1">
                    <mxGeometry x="1170" y="305" width="60" height="30" as="geometry"/>
                </mxCell>
            </root>
        </mxGraphModel>
    </diagram>
</mxfile>